<?xml version="1.0" encoding="utf-8"?>
<!-- Generator: Adobe Illustrator 25.4.1, SVG Export Plug-In . SVG Version: 6.00 Build 0)  -->
<svg version="1.0" id="Warstwa_1" xmlns="http://www.w3.org/2000/svg" xmlns:xlink="http://www.w3.org/1999/xlink" x="0px" y="0px"
	 viewBox="0 0 566.93 566.93" style="enable-background:new 0 0 566.93 566.93;" xml:space="preserve">
<path d="M91,121.87c2.69-6.51,7.61-8.75,14.52-8.57c12.47,0.32,24.95,0.05,37.42,0.1c15.21,0.06,24.78,7.46,28.76,22.19
	c3.93,14.55,7.89,29.08,11.66,43.67c0.68,2.65,1.73,3.54,4.52,3.55c54.89,0.14,109.77,0.39,164.66,0.63
	c32.68,0.14,65.36,0.28,98.04,0.48c15.98,0.1,26.4,12.66,22.89,28.23c-8.88,39.36-17.97,78.68-27.21,117.96
	c-3.05,12.96-13.79,21.05-27.28,21.4c-4.74,0.12-9.48,0.03-14.22,0.03c-66.36-0.04-132.73-0.08-199.09-0.11
	c-1.74,0-3.5-0.01-5.23,0.18c-6.5,0.7-11.08,5.89-11.08,12.47c0,6.55,4.63,11.7,11.18,12.34c1.73,0.17,3.49,0.14,5.23,0.14
	c73.1,0.01,146.2,0,219.31,0.01c8.89,0,14.17,5.09,13.31,12.77c-0.42,3.76-2.28,6.21-7.02,9.2c7.37,20.23,3.75,37.62-14.46,50.31
	c-13.25,9.23-31.26,8.36-44.24-1.13c-14.84-10.86-18.96-25.96-13.04-48.4c-23.29,0-46.51,0-69.88,0
	c6.97,19.94,3.2,37.16-14.63,49.34c-13.85,9.46-29.07,9.36-42.89-0.05c-17.72-12.06-21.42-29.23-14.49-49.59
	c-5.38,0-10.44,0.07-15.49-0.01c-18.23-0.29-32.31-12.37-35.1-30.05c-3.01-19.11,11.06-37.55,30.31-39.74
	c0.85-0.1,1.7-0.22,2.84-0.37c-0.31-1.46-0.53-2.78-0.87-4.06c-16.45-61.08-32.92-122.16-49.38-183.24
	c-1.33-4.94-2.2-5.63-7.24-5.63c-12.47-0.01-24.95-0.17-37.42,0.06c-6.89,0.13-11.84-2.23-14.36-8.86C91,125.36,91,123.62,91,121.87
	z M204.18,256.19c14.59,0,28.86,0,43.47,0c-0.14-1.72-0.19-3.19-0.38-4.65c-1.9-14.19-3.92-28.36-5.65-42.57
	c-0.34-2.75-1.22-3.51-3.87-3.5c-13.7,0.03-27.4-0.11-41.11-0.19c-1.93-0.01-3.86,0-6.18,0
	C195.15,222.68,199.67,239.45,204.18,256.19z M336.06,256.07c0.64,0.13,1.11,0.32,1.58,0.32c12.83,0.02,25.66-0.03,38.49,0.08
	c2.45,0.02,2.81-1.22,3.06-3.18c1.13-9.01,2.38-18.01,3.55-27.02c0.86-6.61,1.68-13.24,2.55-20.15c-16.71,0-32.95,0-49.22,0
	C336.06,222.92,336.06,239.44,336.06,256.07z M313.25,205.88c-16.68,0-32.94,0-49.44,0c2.27,16.97,4.51,33.68,6.73,50.25
	c14.6,0,28.61,0,42.71,0C313.25,239.3,313.25,222.76,313.25,205.88z M451.86,206.22c-14.23,0-27.93-0.05-41.63,0.12
	c-0.87,0.01-2.34,1.61-2.49,2.62c-1.37,8.99-2.53,18.01-3.71,27.02c-0.87,6.65-1.69,13.3-2.56,20.22c13.16,0,25.93,0,38.85,0
	C444.13,239.66,447.91,223.31,451.86,206.22z M210.27,278.88c4.29,15.83,8.34,30.94,12.53,46.02c0.85,3.04,3.44,4.12,6.41,4.16
	c4.61,0.06,9.21,0.02,13.82,0.03c4.68,0,9.37,0,14.24,0c-0.08-1.65-0.05-2.76-0.2-3.85c-1.53-11.59-3.04-23.19-4.65-34.77
	c-0.52-3.78-0.07-8.99-2.31-10.87c-2.3-1.93-7.35-0.67-11.19-0.69C229.6,278.85,220.29,278.88,210.27,278.88z M375.66,279.08
	c-13.57,0-26.47,0-39.55,0c0,16.69,0,33.16,0,49.98c10.57,0,20.88,0.06,31.19-0.12c0.74-0.01,1.94-1.63,2.09-2.63
	c1.1-7.01,2-14.05,2.92-21.08C373.44,296.63,374.52,288.02,375.66,279.08z M313.17,328.88c0-16.68,0-33.17,0-49.78
	c-13.24,0-26.25,0-39.61,0c2.23,16.75,4.43,33.23,6.64,49.78C291.37,328.88,302.16,328.88,313.17,328.88z M435,279.08
	c-12.43,0-24.34,0-36.6,0c-2.19,16.59-4.37,33.07-6.59,49.93c9.46,0,18.52,0.13,27.59-0.07c3.34-0.07,4.79-2.58,5.48-5.68
	c1.99-8.99,4.09-17.95,6.15-26.92C432.31,290.68,433.62,285.03,435,279.08z M253.76,432.69c9.34-0.04,16.92-7.67,16.81-16.93
	c-0.11-9.08-7.66-16.62-16.76-16.72c-9.23-0.1-16.88,7.54-16.9,16.86C236.89,425.31,244.33,432.73,253.76,432.69z M395.49,432.69
	c9.41,0.08,16.93-7.32,16.98-16.69c0.05-9.27-7.59-16.97-16.83-16.96c-9.1,0.01-16.62,7.45-16.78,16.62
	C378.7,425.01,386.12,432.61,395.49,432.69z"/>
</svg>
