<?xml version="1.0" encoding="utf-8"?>
<!-- Generator: Adobe Illustrator 25.4.1, SVG Export Plug-In . SVG Version: 6.00 Build 0)  -->
<svg version="1.0" id="Warstwa_1" xmlns="http://www.w3.org/2000/svg" xmlns:xlink="http://www.w3.org/1999/xlink" x="0px" y="0px"
	 viewBox="0 0 566.93 566.93" style="enable-background:new 0 0 566.93 566.93;" xml:space="preserve">
<path d="M106.92,284.16c0.28-97.23,79.16-175.86,176.22-175.63c96.52,0.22,175.68,79.65,175.3,175.88
	c-0.39,97.95-79.45,176.05-177.76,175.58C185.24,459.53,106.64,380,106.92,284.16z M138.91,284.02c0,79.36,64.14,143.85,143.22,144
	c79.71,0.15,144.37-64.42,144.31-144.08c-0.06-78.9-64.54-143.37-143.43-143.4C203.47,140.5,138.91,204.79,138.91,284.02z"/>
<path d="M267.25,310.01c8.13-7.44,16.11-14.76,24.09-22.07c19.86-18.2,39.74-36.38,59.57-54.61c3.78-3.48,8.07-5.46,13.23-4.83
	c6.67,0.81,11.36,4.45,13.5,10.82c2.15,6.39,0.58,12.18-4.32,16.74c-11.58,10.8-23.32,21.44-34.99,32.14
	c-19.76,18.12-39.47,36.31-59.37,54.29c-2.58,2.33-5.93,4.33-9.25,5.2c-5.35,1.41-10.37-0.29-14.38-4.3
	c-15.97-15.96-31.98-31.87-47.87-47.91c-6.6-6.67-6.48-16.42-0.05-22.78c6.23-6.16,15.99-6.19,22.53,0.24
	c11.47,11.28,22.79,22.72,34.18,34.09C265.08,307.98,266.07,308.89,267.25,310.01z"/>
</svg>
