<?xml version="1.0" encoding="utf-8"?>
<!-- Generator: Adobe Illustrator 25.4.1, SVG Export Plug-In . SVG Version: 6.00 Build 0)  -->
<svg version="1.0" id="Warstwa_1" xmlns="http://www.w3.org/2000/svg" xmlns:xlink="http://www.w3.org/1999/xlink" x="0px" y="0px"
	 viewBox="0 0 566.93 566.93" style="enable-background:new 0 0 566.93 566.93;" xml:space="preserve">
<path d="M91,365.15c2.65-6.79,7.56-9.73,14.87-9.3c5.45,0.33,10.93,0.06,16.99,0.06c0-1.9,0-3.47,0-5.04
	c0-57.13,0.06-114.26-0.04-171.4c-0.03-14.07,4.9-25.53,16.31-33.95c6.29-4.63,13.41-7.23,21.24-7.23
	c81.46-0.05,162.91-0.19,244.37,0.1c16.37,0.06,28.19,8.8,34.45,23.83c2.27,5.45,3.05,11.87,3.07,17.85
	c0.22,56.88,0.13,113.77,0.13,170.65c0,1.58,0,3.16,0,5.19c6.31,0,12.13-0.01,17.96,0c9.41,0.03,13.89,4.56,13.9,14.06
	c0.01,9.48,0.02,18.96,0,28.44c-0.04,19.11-12.72,31.93-31.88,31.97c-38.55,0.07-77.09,0.02-115.64,0.02
	c-67.61,0-135.22-0.06-202.83,0.05c-12.2,0.02-21.96-4.18-28.38-14.71c-2.03-3.33-3.04-7.27-4.52-10.93
	C91,391.59,91,378.37,91,365.15z M418.34,355.72c0-1.63,0-2.86,0-4.09c0-57.49,0.01-114.98-0.01-172.47
	c0-11.27-5.74-16.92-17.08-16.92c-79.06,0-158.13,0-237.19,0c-11.54,0-17.15,5.61-17.15,17.22c-0.01,57.36,0,114.73,0,172.09
	c0,1.32,0,2.65,0,4.16C237.54,355.72,327.65,355.72,418.34,355.72z M115.46,379.93c-0.26,0.76-0.41,0.99-0.41,1.22
	c-0.03,5.11-0.06,10.23-0.06,15.34c-0.01,8.35,1.5,9.88,9.7,9.88c105.29,0,210.58,0,315.87,0c1.25,0,2.5,0.05,3.74-0.04
	c3.15-0.23,5.53-2.06,5.68-5c0.37-7.04,0.12-14.11,0.12-21.17c-0.86-0.1-1.35-0.21-1.84-0.21c-41.42-0.01-82.83,0-124.25-0.05
	c-1.94,0-2.75,0.68-3.49,2.47c-2.02,4.85-5.94,7.36-11.14,7.38c-17.84,0.09-35.68,0.08-53.52,0c-4.87-0.02-8.91-2.16-10.75-6.74
	c-1.15-2.88-2.82-3.13-5.38-3.13c-40.17,0.06-80.34,0.04-120.51,0.04C117.99,379.93,116.76,379.93,115.46,379.93z"/>
<path d="M298.13,315.14c-10.22,0-19.82,0-29.93,0c0-19.69,0-39.27,0-59.52c-10.2,0-19.92,0-29.94,0c0-10.27,0-19.86,0-29.91
	c29.65,0,59.37,0,89.49,0c0,9.8,0,19.48,0,29.15c-12.47,1.02-22.01-6.16-29.61-23.06C298.13,260.42,298.13,287.64,298.13,315.14z"/>
</svg>
