<?xml version="1.0" encoding="utf-8"?>
<!-- Generator: Adobe Illustrator 25.4.1, SVG Export Plug-In . SVG Version: 6.00 Build 0)  -->
<svg version="1.0" id="Warstwa_1" xmlns="http://www.w3.org/2000/svg" xmlns:xlink="http://www.w3.org/1999/xlink" x="0px" y="0px"
	 viewBox="0 0 566.93 566.93" style="enable-background:new 0 0 566.93 566.93;" xml:space="preserve">
<path d="M415.2,475.93c-95.84,0-191.68,0-287.51,0c-0.69-0.23-1.37-0.56-2.08-0.68c-12.89-2.26-22.82-9-29.13-20.4
	c-2.53-4.56-3.7-9.88-5.48-14.85c0-71.37,0-142.73,0-214.1c0.23-0.7,0.53-1.38,0.69-2.1c3.66-17.09,13.98-27.94,30.73-32.7
	c2.22-0.63,4.54-0.9,7.07-1.39c-1.68-4.63-3.28-8.94-4.81-13.27c-5.27-14.93,1.04-29.13,15.86-34.58
	c43.36-15.94,86.76-31.75,130.21-47.44c14.19-5.13,28.36,1.64,33.75,15.74c2.8,7.32,5.52,14.69,7.97,22.14
	c0.93,2.82,2.14,3.81,5.22,3.79c22.83-0.15,45.66-0.17,68.49-0.03c14.53,0.09,25.79,11.42,26,25.92c0.12,8.11,0.03,16.21,0.03,24.32
	c0,1.18,0,2.36,0,3.47c24.87,2.82,39.67,19.36,39.68,43.75c0.01,12.22,0,24.45,0,36.67c0,1.95,0,3.91,0,5.78
	c0.88,0.31,1.33,0.51,1.81,0.63c12.88,3.33,20.61,13.09,20.64,26.29c0.05,19.71,0.08,39.41-0.02,59.12
	c-0.06,12.13-7.84,22.09-19.49,25.37c-0.92,0.26-1.85,0.51-2.94,0.81c0,1.54,0,2.9,0,4.26c-0.01,14.34,0.15,28.69-0.07,43.03
	c-0.26,17.82-12.12,33.35-29.09,38.5C420.26,474.74,417.72,475.29,415.2,475.93z M429.43,388.28c-14.46,0-28.31,0.16-42.15-0.03
	c-30.02-0.41-54.76-25.15-55.17-54.94c-0.43-31.7,24.36-57.03,56.14-57.28c12.35-0.1,24.71-0.02,37.06-0.02c1.31,0,2.63,0,4.12,0
	c0-15.16,0.05-29.75-0.02-44.34c-0.05-11.33-7.99-19.27-19.39-19.27c-92.34-0.03-184.68-0.03-277.01,0
	c-11.64,0-19.53,7.91-19.53,19.51c-0.03,67.24-0.02,134.49,0,201.73c0,11.79,7.94,19.77,19.71,19.78
	c92.21,0.02,184.43,0.03,276.64,0c11.56,0,19.54-8,19.59-19.52c0.06-14.1,0.01-28.2,0.01-42.29
	C429.43,390.61,429.43,389.65,429.43,388.28z M289.81,135.65c-2-5.62-3.91-11.13-5.92-16.59c-1.44-3.91-2.84-4.53-6.89-3.05
	c-42.6,15.49-85.19,30.99-127.78,46.5c-3.98,1.45-4.66,2.9-3.25,6.83c2.06,5.74,4.41,11.39,6.23,17.2c0.89,2.84,2.33,3.44,5.08,3.44
	c32.44-0.09,64.87-0.06,97.31-0.06c1.31,0,2.62,0,3.78,0c0.18-0.69,0.23-0.81,0.23-0.93c0.04-9.1-0.02-18.21,0.14-27.31
	c0.21-12.1,8.58-22.38,20.4-24.93C282.5,136.02,286,136.02,289.81,135.65z M416.7,298.46c-8.98,0-17.96-0.03-26.95,0.02
	c-2.24,0.01-4.51,0.03-6.71,0.41c-17.75,3.1-29.86,18.52-28.4,36.04c1.46,17.47,15.98,30.76,34,30.87
	c19.21,0.12,38.42,0.04,57.63,0.02c4.44,0,5.59-1.13,5.59-5.47c0.02-18.83,0.02-37.67,0-56.5c0-4.4-1.05-5.38-5.62-5.39
	C436.41,298.44,426.56,298.46,416.7,298.46z M281.19,189.66c36.41,0,72.36,0,108.55,0c0-8.46,0.01-16.67,0-24.88
	c0-5.56-0.73-6.31-6.2-6.31c-32.04-0.01-64.07,0-96.11,0c-0.75,0-1.5-0.01-2.24,0.02c-2.55,0.1-3.97,1.47-3.98,3.98
	C281.16,171.43,281.19,180.39,281.19,189.66z"/>
<path d="M388.12,343.36c-6.03-0.08-11.11-5.24-11.09-11.28c0.02-6.25,5.23-11.29,11.53-11.14c6.1,0.15,11.03,5.3,10.9,11.39
	C399.34,338.38,394.13,343.44,388.12,343.36z"/>
</svg>
