<?xml version="1.0" encoding="utf-8"?>
<!-- Generator: Adobe Illustrator 26.0.1, SVG Export Plug-In . SVG Version: 6.00 Build 0)  -->
<svg version="1.1" id="Warstwa_1" xmlns="http://www.w3.org/2000/svg" xmlns:xlink="http://www.w3.org/1999/xlink" x="0px" y="0px"
	 viewBox="0 0 294 75" style="enable-background:new 0 0 294 75;" xml:space="preserve">
<style type="text/css">
	.st0{fill:#878787;}
	.st1{fill:#5A9E33;}
	.st2{fill:url(#SVGID_1_);}
	.st3{fill:url(#SVGID_00000065044133299419642800000008049885483574451335_);}
</style>
<g>
	<path class="st0" d="M5.8,43.5c0-8.9,5.3-14.1,15.5-14.1c8.1,0,13,3.3,15,9.9c0.2,0.6,0,1-0.5,1.2l-1.2,0.4c-0.6,0.2-0.9,0-1.2-0.6
		c-1.7-5.7-5.2-8.2-12.2-8.2c-8.1,0-12.3,4.1-12.3,11.1v11.3c0,7,4.4,11.2,12.3,11.2c6.9,0,10.7-2.8,12.3-8.6
		c0.2-0.6,0.6-0.8,1.2-0.6l1.3,0.4c0.6,0.2,0.7,0.6,0.5,1.2c-2.1,7-7.3,10.5-15.3,10.5c-9.9,0-15.3-5.2-15.3-14.1L5.8,43.5L5.8,43.5
		z"/>
	<path class="st0" d="M39.5,42.2c0-7.8,6-12.8,15.5-12.8c9.6,0,15.6,4.9,15.6,12.8V56c0,7.8-6,12.7-15.6,12.7
		c-9.5,0-15.5-4.9-15.5-12.7V42.2z M67.5,42.2c0-6.1-4.9-9.9-12.5-9.9c-7.5,0-12.4,3.9-12.4,9.9V56c0,6,4.9,9.9,12.4,9.9
		c7.5,0,12.5-3.8,12.5-9.9V42.2z"/>
	<path class="st0" d="M112.3,29.4c8.5,0,12.8,4.5,12.8,13.5v23.9c0,0.6-0.3,0.9-0.9,0.9h-1.4c-0.6,0-0.9-0.3-0.9-0.9V43.1
		c0-7.3-3.1-10.8-10-10.8c-3.9,0-7.7,1-11.3,3c1.2,2,1.7,4.5,1.7,7.6v23.9c0,0.6-0.3,0.9-0.9,0.9h-1.4c-0.6,0-0.9-0.3-0.9-0.9V43.1
		c0-7.2-3.4-10.8-10.3-10.8c-3.2,0-6,0.6-8.5,1.7c-1,0.5-1.5,1.3-1.5,2.5v30.2c0,0.6-0.3,0.9-0.8,0.9h-1.4c-0.6,0-0.9-0.3-0.9-0.9
		v-31c0-2.2,0.6-3.1,2.8-4.1c3.3-1.5,6.9-2.2,10.8-2.2c4.3,0,7.5,1.2,9.7,3.5C103.1,30.6,107.5,29.4,112.3,29.4z"/>
	<path class="st1" d="M162.2,14c1.4,0,1.7,0.4,1.7,1.7v2.5c0,1.4-0.4,1.8-1.7,1.8h-12.1c-6.9,0-9.4,2.4-9.4,8.9v1.4h21.4
		c1.4,0,1.7,0.4,1.7,1.7v34c0,1.4-0.4,1.7-1.7,1.7h-3.1c-1.4,0-1.7-0.4-1.7-1.7V36.3h-16.6V66c0,1.4-0.4,1.7-1.8,1.7h-2.9
		c-1.4,0-1.8-0.4-1.8-1.7V36.3h-5.5c-1.2,0-1.7-0.5-1.7-1.7V32c0-1.2,0.4-1.7,1.7-1.7h5.5v-1.4c0-10.4,4.9-14.9,15.9-14.9L162.2,14
		L162.2,14z"/>
	<path class="st1" d="M185.9,29.2c9.8,0,14.7,4.8,14.7,14.4V66c0,1.4-0.5,1.7-1.7,1.7h-3c-1.2,0-1.7-0.4-1.7-1.7V43.8
		c0-5.7-3-8.6-9.1-8.6c-2.9,0-5.7,0.4-8.4,1.3c-0.6,0.2-0.9,0.6-0.9,1.3V66c0,1.4-0.4,1.7-1.7,1.7h-3.1c-1.2,0-1.7-0.5-1.7-1.7V35.7
		c0-2.3,0.5-3.1,2.8-4.1C176,30,180.6,29.2,185.9,29.2z"/>
	<path class="st1" d="M204.5,43.1c0-8.7,6.1-13.9,16.3-13.9c10.4,0,16.3,5.2,16.3,13.9v11.8c0,8.6-6,13.9-16.3,13.9
		c-10.2,0-16.3-5.2-16.3-13.9V43.1z M230.7,43c0-5-3.7-8-9.9-8c-6.1,0-9.8,3-9.8,8v11.9c0,5,3.7,8,9.8,8c6.2,0,9.9-3,9.9-8V43z"/>
	
		<linearGradient id="SVGID_1_" gradientUnits="userSpaceOnUse" x1="286.3804" y1="29.3299" x2="267.5062" y2="57.9724" gradientTransform="matrix(1 0 0 -1 -0.8883 84.1859)">
		<stop  offset="0" style="stop-color:#DEDC00"/>
		<stop  offset="0.2151" style="stop-color:#95C11F"/>
		<stop  offset="1" style="stop-color:#00663A"/>
	</linearGradient>
	<path class="st2" d="M288.1,39c1,0,1.4,0.7,1,1.6l-4.4,8.6c-0.3,0.6-1.1,1.1-1.8,1.1h-5.1c-3.4,0-6.5-0.9-9.2-2.5
		c-3.6-2.4-6-6-6-10.1c0-7.1,6.5-12.9,15.2-12.9c-3.9,0-7.1,3.2-7.1,7.1c0,3.9,3.2,7.1,7.1,7.1L288.1,39L288.1,39z"/>
	
		<linearGradient id="SVGID_00000127730724505922006500000015773728883974292414_" gradientUnits="userSpaceOnUse" x1="264.7014" y1="47.8636" x2="301.8663" y2="86.8378" gradientTransform="matrix(1 0 0 -1 -0.8883 84.1859)">
		<stop  offset="0" style="stop-color:#DEDC00"/>
		<stop  offset="0.2151" style="stop-color:#95C11F"/>
		<stop  offset="0.4162" style="stop-color:#5A9E33"/>
		<stop  offset="1" style="stop-color:#5A9E33"/>
	</linearGradient>
	<path style="fill:url(#SVGID_00000127730724505922006500000015773728883974292414_);" d="M259.4,31.9c0-10.2,8.3-18.4,18.4-18.4
		h10.3c1,0,1.4,0.7,1,1.6l-4.4,8.6c-0.3,0.6-1.1,1.1-1.8,1.1h-5.1c-8.6,0-15.2,5.8-15.2,12.9c0,4.1,2.3,7.8,6,10.1
		C263.1,44.7,259.4,38.7,259.4,31.9z"/>
	<rect x="249.7" y="5.2" class="st0" width="1" height="52.2"/>
</g>
</svg>
