<?xml version="1.0" encoding="utf-8"?>
<!-- Generator: Adobe Illustrator 26.5.0, SVG Export Plug-In . SVG Version: 6.00 Build 0)  -->
<svg version="1.1" id="Warstwa_1" xmlns="http://www.w3.org/2000/svg" xmlns:xlink="http://www.w3.org/1999/xlink" x="0px" y="0px"
	 viewBox="0 0 283.5 283.5" style="enable-background:new 0 0 283.5 283.5;" xml:space="preserve">
<style type="text/css">
	.st0{fill:url(#SVGID_1_);}
	.st1{fill:url(#SVGID_00000145768342738992081870000001798630536949458342_);}
</style>
<linearGradient id="SVGID_1_" gradientUnits="userSpaceOnUse" x1="226.4268" y1="322.7979" x2="84.7492" y2="107.7955" gradientTransform="matrix(1 0 0 1 -0.8883 -8.885)">
	<stop  offset="0" style="stop-color:#DEDC00"/>
	<stop  offset="0.2151" style="stop-color:#95C11F"/>
	<stop  offset="1" style="stop-color:#00663A"/>
</linearGradient>
<path class="st0" d="M245,194.8c7.3,0,10.6,5.3,7.3,11.8l-32.6,64.8c-2.3,4.7-8.5,8.4-13.7,8.4h-38.3c-25.2,0-48.8-6.8-69.2-18.6
	c-27.3-17.7-44.9-45.2-44.9-76.1c0-53.5,49.2-97,114.1-97c-29.4,0-53.3,23.9-53.3,53.3c0,29.4,23.9,53.3,53.3,53.3H245z"/>
<linearGradient id="SVGID_00000058565350149292330150000015750265439516874168_" gradientUnits="userSpaceOnUse" x1="63.7626" y1="183.7239" x2="342.7388" y2="-108.832" gradientTransform="matrix(1 0 0 1 -0.8883 -8.885)">
	<stop  offset="0" style="stop-color:#DEDC00"/>
	<stop  offset="0.2151" style="stop-color:#95C11F"/>
	<stop  offset="0.4162" style="stop-color:#5A9E33"/>
	<stop  offset="1" style="stop-color:#5A9E33"/>
</linearGradient>
<path style="fill:url(#SVGID_00000058565350149292330150000015750265439516874168_);" d="M29.3,141.5C29.3,65.2,91.4,3.1,167.7,3.1
	H245c7.3,0,10.6,5.3,7.3,11.8l-32.6,64.8c-2.3,4.7-8.5,8.4-13.7,8.4h-38.3c-64.9,0-114.1,43.6-114.1,97c0,30.9,17.6,58.3,44.9,76.1
	C57.2,237.3,29.3,192.6,29.3,141.5z"/>
</svg>
